<svg id="content" xmlns="http://www.w3.org/2000/svg" width="72" height="72" viewBox="0 0 72 72"><defs><style>.cls-1{fill:#19bfd3;}</style></defs><title>bcch-arrow-dwn</title><path class="cls-1" d="M100.67,851.47a36,36,0,1,1,36-36A36,36,0,0,1,100.67,851.47Zm0-63.65a27.65,27.65,0,1,0,27.65,27.65A27.68,27.68,0,0,0,100.67,787.81Z" transform="translate(-64.67 -779.47)"/><path class="cls-1" d="M100.67,827a4.16,4.16,0,0,1-3-1.22l-12-12a4.17,4.17,0,1,1,5.9-5.9l9.09,9.09,9.09-9.09a4.17,4.17,0,1,1,5.9,5.9l-12,12A4.16,4.16,0,0,1,100.67,827Z" transform="translate(-64.67 -779.47)"/></svg>